<svg width="36" height="35" viewBox="0 0 36 35" fill="none" xmlns="http://www.w3.org/2000/svg">
<path d="M9.25033 20.4167H26.7503V17.986H9.25033V20.4167ZM9.25033 15.7985H26.7503V13.3682H9.25033V15.7985ZM9.25033 11.1807H26.7503V8.75002H9.25033V11.1807ZM32.5837 32.0834L26.7503 26.25H5.84767C5.19142 26.25 4.62218 26.009 4.13996 25.5271C3.65798 25.0448 3.41699 24.4756 3.41699 23.8193V5.34736C3.41699 4.69111 3.65798 4.12188 4.13996 3.63966C4.62218 3.15768 5.19142 2.91669 5.84767 2.91669H30.153C30.8092 2.91669 31.3785 3.15768 31.8607 3.63966C32.3427 4.12188 32.5837 4.69111 32.5837 5.34736V32.0834ZM5.84767 23.8193H27.7956L30.153 26.3109V5.34736H5.84767V23.8193Z" fill="#707070"/>
</svg>
