<svg width="35" height="35" viewBox="0 0 35 35" fill="none" xmlns="http://www.w3.org/2000/svg">
<path d="M17.4913 30.932L15.6243 29.2527C13.0727 26.9242 10.9643 24.9151 9.29911 23.2254C7.6337 21.5357 6.30844 20.0222 5.32333 18.6849C4.33823 17.3479 3.64868 16.1287 3.25469 15.0274C2.86094 13.9264 2.66406 12.8059 2.66406 11.6659C2.66406 9.37175 3.43273 7.45586 4.97005 5.91829C6.50738 4.38072 8.41257 3.61194 10.6856 3.61194C12.0258 3.61194 13.2771 3.91004 14.4394 4.50626C15.6017 5.10272 16.619 5.9635 17.4913 7.0886C18.4609 5.91489 19.514 5.04195 20.6508 4.4698C21.7876 3.89789 23.003 3.61194 24.297 3.61194C26.5783 3.61194 28.4885 4.38072 30.0275 5.91829C31.5665 7.45611 32.336 9.37223 32.336 11.6667C32.336 12.8039 32.1397 13.9222 31.7469 15.0216C31.3539 16.1209 30.6643 17.3386 29.6782 18.6747C28.6922 20.011 27.3652 21.5257 25.6973 23.2189C24.0297 24.9117 21.9187 26.923 19.3642 29.2527L17.4913 30.932ZM17.4884 27.2606C19.9007 25.0569 21.8844 23.1724 23.4395 21.6074C24.9943 20.0421 26.2261 18.6745 27.1349 17.5044C28.0437 16.3343 28.6774 15.2933 29.0362 14.3814C29.3949 13.4694 29.5743 12.5657 29.5743 11.6703C29.5743 10.1357 29.0791 8.86923 28.0886 7.871C27.098 6.87277 25.8372 6.37366 24.3065 6.37366C23.1075 6.37366 21.9955 6.73715 20.9705 7.46412C19.9456 8.1911 19.1536 9.18058 18.5945 10.4326H16.3724C15.8316 9.19298 15.0464 8.20666 14.0168 7.4736C12.9872 6.74031 11.8756 6.37366 10.682 6.37366C9.15826 6.37366 7.90276 6.87144 6.91547 7.86699C5.92818 8.86279 5.43453 10.1319 5.43453 11.6743C5.43453 12.5787 5.61512 13.4918 5.9763 14.4134C6.33773 15.3351 6.97295 16.3847 7.88198 17.5624C8.79101 18.7397 10.0241 20.1064 11.5814 21.6625C13.1387 23.2187 15.1077 25.0848 17.4884 27.2606Z" fill="#707070"/>
</svg>
