<svg width="35" height="35" viewBox="0 0 35 35" fill="none" xmlns="http://www.w3.org/2000/svg">
<path d="M17.5003 30.6006L15.7988 29.0693C13.263 26.7603 11.1687 24.7672 9.51595 23.0901C7.86317 21.4131 6.54666 19.9122 5.56642 18.5875C4.58593 17.2629 3.8993 16.0578 3.50652 14.9723C3.1135 13.8866 2.91699 12.7847 2.91699 11.6666C2.91699 9.44682 3.66232 7.59146 5.15298 6.10055C6.64388 4.60989 8.49111 3.86456 10.6946 3.86456C12.0397 3.86456 13.2956 4.17239 14.4623 4.78805C15.6289 5.40396 16.6416 6.2871 17.5003 7.43748C18.4563 6.23849 19.5054 5.34319 20.6478 4.75159C21.7901 4.16024 23.0095 3.86456 24.306 3.86456C26.5095 3.86456 28.3568 4.60989 29.8477 6.10055C31.3383 7.59146 32.0837 9.44682 32.0837 11.6666C32.0837 12.7847 31.8872 13.8866 31.4941 14.9723C31.1014 16.0578 30.4147 17.2629 29.4342 18.5875C28.454 19.9122 27.1375 21.4131 25.4847 23.0901C23.8319 24.7672 21.7376 26.7603 19.2018 29.0693L17.5003 30.6006Z" fill="#5F6368"/>
</svg>
