<svg width="116" height="27" viewBox="0 0 116 27" fill="none" xmlns="http://www.w3.org/2000/svg">
<path d="M16.8056 21.4015C17.3112 21.4015 17.6838 21.6 17.9233 21.9971C18.1894 22.3676 18.3225 22.7779 18.3225 23.2279C18.3225 23.7838 18.2293 24.1809 18.0431 24.4191C17.8834 24.6309 17.564 24.8559 17.085 25.0941C15.9673 25.6235 14.5835 26.0471 12.9335 26.3647C11.2836 26.6824 9.51385 26.8412 7.62439 26.8412C5.25591 26.8412 3.51281 26.4441 2.3951 25.65C1.304 24.8559 0.625386 23.9029 0.359264 22.7912C0.119755 21.6529 0 20.1706 0 18.3441C0 16.3853 0.0798365 14.4662 0.23951 12.5868C0.399183 10.6809 0.678611 8.25882 1.07779 5.32059C1.26408 4.05 1.76971 3.13676 2.59469 2.58088C3.41967 1.99853 4.32448 1.70735 5.30913 1.70735C6.13411 1.70735 7.47802 1.68088 9.34088 1.62794L12.8138 1.58823C14.2508 1.58823 15.2887 1.62794 15.9274 1.70735C16.7258 1.86618 17.3112 2.05147 17.6838 2.26323C18.083 2.44853 18.2826 2.77941 18.2826 3.25588C18.2826 3.78529 18.0963 4.30147 17.7237 4.80441C17.3778 5.30735 16.8455 5.55882 16.127 5.55882C15.302 5.55882 14.1178 5.50588 12.5743 5.4C11.0307 5.29412 9.87312 5.24117 9.10137 5.24117C8.43606 5.24117 7.78406 5.28088 7.14537 5.36029C6.40023 5.41323 5.86799 5.50588 5.54864 5.63823C5.22929 5.77059 5.04301 5.99559 4.98978 6.31323C4.61721 9.03971 4.43093 11.0515 4.43093 12.3485C5.04301 12.4279 5.64178 12.4676 6.22725 12.4676C6.97239 12.4676 7.77076 12.4279 8.62235 12.3485C9.47394 12.2691 10.0195 12.2162 10.259 12.1897C11.6694 12.0574 12.8803 11.9912 13.8916 11.9912C14.477 11.9912 14.9161 12.0971 15.2089 12.3088C15.5282 12.5206 15.6879 12.8118 15.6879 13.1824C15.6879 13.7647 15.5282 14.2147 15.2089 14.5324C14.9161 14.85 14.3839 15.0882 13.6121 15.2471C12.6807 15.4324 11.5231 15.5779 10.1392 15.6838C8.78202 15.7897 7.45141 15.8426 6.14741 15.8426C5.69501 15.8426 5.06962 15.8162 4.27126 15.7632C4.19142 17.3779 4.1515 18.8735 4.1515 20.25C4.1515 22.1294 5.40227 23.0691 7.90382 23.0691C9.23443 23.0691 10.3388 22.9765 11.217 22.7912C12.0952 22.6059 13.1065 22.3412 14.2508 21.9971C15.3153 21.6 16.1669 21.4015 16.8056 21.4015Z" fill="#5F6368"/>
<path d="M26.1767 20.6471C26.1767 21.6529 26.3231 22.4338 26.6158 22.9897C26.9352 23.5191 27.3343 23.7838 27.8134 23.7838C28.0795 23.7838 28.3323 23.7706 28.5718 23.7441C28.8113 23.6912 29.0508 23.6647 29.2903 23.6647C29.5565 23.6647 29.7827 23.7971 29.969 24.0618C30.1819 24.3265 30.2883 24.6176 30.2883 24.9353C30.2883 25.5706 29.9823 26.0735 29.3702 26.4441C28.7847 26.7882 27.9863 26.9603 26.9751 26.9603C26.2566 26.9603 25.5247 26.7485 24.7796 26.325C24.061 25.875 23.4623 25.1868 22.9833 24.2603C22.5042 23.3074 22.2647 22.1294 22.2647 20.7265C22.2647 17.7088 22.318 15.1544 22.4244 13.0632C22.5575 10.575 22.624 7.43823 22.624 3.65294C22.624 2.46176 22.6905 1.62794 22.8236 1.15147C22.9833 0.780882 23.2361 0.50294 23.582 0.317645C23.9546 0.105882 24.3405 0 24.7397 0C25.1388 0 25.4848 0.0661764 25.7775 0.198529C26.0969 0.330882 26.3098 0.542646 26.4162 0.833822C26.5227 1.15147 26.5892 1.46912 26.6158 1.78676C26.669 2.07794 26.6957 2.50147 26.6957 3.05735C26.6957 4.14265 26.6557 5.18823 26.5759 6.19412C26.5227 7.41176 26.4961 8.29853 26.4961 8.85441C26.2832 13.5132 26.1767 17.4441 26.1767 20.6471Z" fill="#5F6368"/>
<path d="M32.6915 18.3838C32.6915 17.3779 32.8778 16.3721 33.2504 15.3662C33.6229 14.3338 34.1153 13.3941 34.7273 12.5471C35.3394 11.7 36.3108 11.0118 37.6414 10.4824C38.972 9.92647 40.1562 9.64853 41.1941 9.64853C42.2586 9.64853 43.3364 9.79412 44.4275 10.0853C45.5452 10.3765 46.3169 10.8265 46.7427 11.4353C47.7274 12.8118 48.2197 14.1618 48.2197 15.4853C48.2197 16.2 48.06 16.8088 47.7407 17.3118C47.448 17.8147 47.0222 18.3574 46.4633 18.9397C46.0109 19.4162 45.2924 19.7338 44.3077 19.8926C43.3497 20.0515 42.3916 20.1309 41.4336 20.1309C40.8215 20.1309 40.0764 20.0779 39.1982 19.9721C38.32 19.8397 37.4684 19.6809 36.6434 19.4956C36.6966 20.025 36.8297 20.5412 37.0426 21.0441C37.2555 21.5471 37.5083 21.9309 37.801 22.1956C38.3333 22.6985 38.8788 23.0162 39.4377 23.1485C40.0232 23.2809 40.7683 23.3471 41.6731 23.3471C42.6312 23.3471 43.5227 23.1882 44.3476 22.8706C45.0129 22.6324 45.5585 22.5132 45.9843 22.5132C46.4899 22.5132 46.8758 22.6721 47.1419 22.9897C47.408 23.2809 47.5411 23.6647 47.5411 24.1412C47.5411 24.8029 47.1552 25.3456 46.3835 25.7691C45.6117 26.1926 44.7202 26.5103 43.7089 26.7221C42.7243 26.9074 41.9259 27 41.3139 27C40.0631 27 38.8522 26.775 37.6813 26.325C36.5103 25.875 35.539 25.2397 34.7673 24.4191C34.1286 23.6779 33.6229 22.7912 33.2504 21.7588C32.8778 20.7 32.6915 19.575 32.6915 18.3838ZM41.3937 13.0235C40.8082 13.0235 40.2228 13.1426 39.6373 13.3809C39.0518 13.5926 38.5728 13.8971 38.2002 14.2941C37.7212 14.7971 37.3886 15.2074 37.2023 15.525C37.0426 15.8162 36.9361 16.2265 36.8829 16.7559C37.5482 16.9676 38.9321 17.0735 41.0344 17.0735C42.1787 17.0735 43.0569 16.9015 43.669 16.5574C44.3077 16.2132 44.6271 15.7632 44.6271 15.2074C44.6271 14.6515 44.2811 14.1485 43.5892 13.6985C42.8973 13.2485 42.1654 13.0235 41.3937 13.0235Z" fill="#5F6368"/>
<path d="M52.0344 12.9838C51.6618 12.9309 51.3558 12.7853 51.1163 12.5471C50.9034 12.2824 50.7969 11.9647 50.7969 11.5941C50.7969 11.1176 50.9832 10.7206 51.3558 10.4029C51.4356 10.3235 51.5687 10.2574 51.755 10.2044C51.9413 10.125 52.0876 10.0588 52.1941 10.0059C52.7795 9.82059 53.1521 9.675 53.3118 9.56912C53.9239 9.19853 54.3364 8.58971 54.5493 7.74265C54.7621 6.73676 54.8952 6.04853 54.9484 5.67794C55.0017 5.09559 55.1879 4.65882 55.5073 4.36765C55.8532 4.05 56.279 3.89118 56.7847 3.89118C57.45 3.89118 57.9157 4.06323 58.1818 4.40735C58.4479 4.75147 58.581 5.38676 58.581 6.31323C58.581 7.53088 58.2883 8.68235 57.7028 9.76765C58.0754 9.76765 58.6874 9.74118 59.539 9.68823C60.8164 9.63529 61.7079 9.60882 62.2136 9.60882C62.666 9.60882 63.0518 9.72794 63.3712 9.96618C63.7171 10.1779 63.8901 10.4956 63.8901 10.9191C63.8901 11.925 63.4244 12.5206 62.493 12.7059C61.6414 12.9441 60.0979 13.0897 57.8625 13.1426C57.6762 15.7368 57.583 17.7882 57.583 19.2971C57.583 20.2235 57.623 20.8853 57.7028 21.2824C57.8625 22.1029 58.1286 22.7118 58.5012 23.1088C58.9003 23.4794 59.4858 23.6647 60.2576 23.6647C60.6301 23.6647 61.189 23.5721 61.9341 23.3868C62.3865 23.2544 62.7458 23.1882 63.0119 23.1882C63.3579 23.1882 63.624 23.3074 63.8103 23.5456C63.9966 23.7838 64.0897 24.1015 64.0897 24.4985C64.0897 25.2132 63.624 25.8088 62.6926 26.2853C61.7612 26.7353 60.6567 26.9603 59.3794 26.9603C58.581 26.9603 57.7959 26.775 57.0242 26.4044C56.2524 26.0074 55.6004 25.5309 55.0682 24.975C54.9617 24.9221 54.8021 24.6309 54.5892 24.1015C54.4029 23.5721 54.2166 22.9897 54.0303 22.3544C53.9505 22.0368 53.9106 21.2691 53.9106 20.0515C53.9106 18.8868 53.9904 16.875 54.1501 14.0162L54.19 13.1426C54.0037 13.1426 53.6577 13.1294 53.1521 13.1029C52.6465 13.05 52.2739 13.0103 52.0344 12.9838Z" fill="#5F6368"/>
<path d="M82.1337 26.9603C81.2289 26.9603 80.537 26.8279 80.058 26.5632C79.5789 26.2721 79.06 25.7426 78.5012 24.975C77.8092 25.5838 76.7714 26.0735 75.3875 26.4441C74.0303 26.8147 72.8594 27 71.8747 27C70.2514 27 68.9341 26.5632 67.9228 25.6897C66.9382 24.7897 66.4458 23.4794 66.4458 21.7588C66.4458 21.0176 66.6454 20.3426 67.0446 19.7338C67.4704 19.0985 68.0159 18.5426 68.6813 18.0662C69.4264 17.5632 70.3046 17.1662 71.3159 16.875C72.3537 16.5838 73.2985 16.4382 74.1501 16.4382C75.5871 16.4382 76.8645 16.5706 77.9822 16.8353V16.7956C77.9822 15.3662 77.6229 14.3868 76.9044 13.8574C76.2125 13.3015 75.0948 13.0235 73.5513 13.0235C72.5666 13.0235 71.715 13.4603 70.9965 14.3338C70.7304 14.6779 70.1715 14.85 69.3199 14.85C68.8942 14.85 68.5748 14.6779 68.3619 14.3338C68.1756 13.9632 68.0825 13.5926 68.0825 13.2221C68.0825 12.4544 68.4018 11.7926 69.0405 11.2368C69.7058 10.6809 70.5042 10.2706 71.4356 10.0059C72.367 9.71471 73.2319 9.56912 74.0303 9.56912C74.8021 9.56912 75.7202 9.72794 76.7847 10.0456C77.8492 10.3632 78.7141 10.7868 79.3794 11.3162C80.1777 12.0044 80.7898 12.8118 81.2156 13.7382C81.668 14.6382 81.8942 15.6309 81.8942 16.7162C81.8942 17.0603 81.8676 17.5765 81.8144 18.2647C81.7611 19.0588 81.7345 19.7074 81.7345 20.2103C81.7345 20.4485 81.7079 20.7529 81.6547 21.1235C81.6015 21.6 81.5749 21.9971 81.5749 22.3147C81.5749 22.6588 81.6813 22.9897 81.8942 23.3074C82.1071 23.625 82.3998 23.8897 82.7724 24.1015C83.1184 24.2868 83.3446 24.4853 83.451 24.6971C83.5575 24.9088 83.6107 25.1471 83.6107 25.4118C83.6107 25.6765 83.4377 26.0074 83.0918 26.4044C82.7724 26.775 82.4531 26.9603 82.1337 26.9603ZM74.1501 19.3765C73.1122 19.3765 72.1941 19.575 71.3957 19.9721C70.5973 20.3691 70.1982 21.0706 70.1982 22.0765C70.1982 22.5794 70.3711 23.0029 70.7171 23.3471C71.0897 23.6912 71.4888 23.8632 71.9146 23.8632C73.059 23.8632 74.017 23.7441 74.7887 23.5059C75.5605 23.2676 76.4919 22.8309 77.583 22.1956C77.7161 21.7721 77.7959 21.1765 77.8225 20.4088C77.8225 20.1176 77.8358 19.8926 77.8625 19.7338C76.4254 19.4956 75.1879 19.3765 74.1501 19.3765Z" fill="#5F6368"/>
<path d="M91.0829 20.6471C91.0829 21.6529 91.2293 22.4338 91.522 22.9897C91.8413 23.5191 92.2405 23.7838 92.7195 23.7838C92.9857 23.7838 93.2385 23.7706 93.478 23.7441C93.7175 23.6912 93.957 23.6647 94.1965 23.6647C94.4626 23.6647 94.6888 23.7971 94.8751 24.0618C95.088 24.3265 95.1945 24.6176 95.1945 24.9353C95.1945 25.5706 94.8884 26.0735 94.2764 26.4441C93.6909 26.7882 92.8925 26.9603 91.8813 26.9603C91.1627 26.9603 90.4309 26.7485 89.6857 26.325C88.9672 25.875 88.3684 25.1868 87.8894 24.2603C87.4104 23.3074 87.1709 22.1294 87.1709 20.7265C87.1709 17.7088 87.2241 15.1544 87.3306 13.0632C87.4636 10.575 87.5302 7.43823 87.5302 3.65294C87.5302 2.46176 87.5967 1.62794 87.7298 1.15147C87.8894 0.780882 88.1422 0.50294 88.4882 0.317645C88.8608 0.105882 89.2466 0 89.6458 0C90.045 0 90.391 0.0661764 90.6837 0.198529C91.0031 0.330882 91.216 0.542646 91.3224 0.833822C91.4289 1.15147 91.4954 1.46912 91.522 1.78676C91.5752 2.07794 91.6018 2.50147 91.6018 3.05735C91.6018 4.14265 91.5619 5.18823 91.4821 6.19412C91.4288 7.41176 91.4022 8.29853 91.4022 8.85441C91.1893 13.5132 91.0829 17.4441 91.0829 20.6471Z" fill="#5F6368"/>
<path d="M100.991 26.9603C100.458 26.9603 100.006 26.8676 99.6335 26.6824C99.2609 26.4971 99.0347 26.2985 98.9549 26.0868C98.6622 25.0279 98.5158 23.6382 98.5158 21.9176C98.5158 18.7412 98.569 16.1603 98.6755 14.175C98.7819 11.8191 98.8351 9.55588 98.8351 7.38529C98.8351 6.75 98.7553 5.82353 98.5956 4.60588C98.569 4.39412 98.5291 4.01029 98.4759 3.45441C98.4227 2.89853 98.396 2.38235 98.396 1.90588C98.396 1.32353 98.5956 0.860292 98.9948 0.516175C99.4206 0.172058 99.9662 0 100.631 0C101.164 0 101.59 0.172058 101.909 0.516175C102.255 0.833822 102.428 1.27059 102.428 1.82647C102.428 2.67353 102.454 3.86471 102.508 5.4C102.561 6.82941 102.587 7.90147 102.587 8.61618C102.587 9.41029 102.561 10.4691 102.508 11.7926C102.454 12.5868 102.428 13.1691 102.428 13.5397C102.428 14.7044 102.441 15.6706 102.468 16.4382C103.452 15.4588 104.743 14.3074 106.34 12.9838C107.937 11.6603 109.174 10.7338 110.052 10.2044C110.984 9.64853 111.596 9.37059 111.888 9.37059C112.447 9.37059 112.926 9.48971 113.325 9.72794C113.725 9.96618 113.924 10.3103 113.924 10.7603C113.924 11.2103 113.858 11.5676 113.725 11.8324C113.592 12.0971 113.352 12.3618 113.006 12.6265L107.857 16.3588C108.442 16.65 108.934 17.0206 109.334 17.4706C109.759 17.9206 110.185 18.4765 110.611 19.1382C111.516 20.6206 112.234 21.7059 112.767 22.3941C113.325 23.0824 113.831 23.4265 114.284 23.4265L115.281 23.3868C115.468 23.3868 115.627 23.4926 115.76 23.7044C115.92 23.9162 116 24.2206 116 24.6176C116 25.2265 115.694 25.7162 115.082 26.0868C114.496 26.4574 113.831 26.6426 113.086 26.6426C112.048 26.6426 111.13 26.2456 110.332 25.4515C109.533 24.6309 108.775 23.5324 108.056 22.1559C107.018 20.1971 105.994 19.0324 104.983 18.6618L102.428 20.7265L102.587 25.0544C102.587 25.7426 102.401 26.2324 102.029 26.5235C101.683 26.8147 101.337 26.9603 100.991 26.9603Z" fill="#5F6368"/>
</svg>
