<svg width="30" height="30" viewBox="0 0 30 30" fill="none" xmlns="http://www.w3.org/2000/svg">
<path d="M5.61458 22.0208C6.85417 21.0729 8.23958 20.3255 9.77083 19.7786C11.3021 19.2318 12.9062 18.9583 14.5833 18.9583C16.2604 18.9583 17.8646 19.2318 19.3958 19.7786C20.9271 20.3255 22.3125 21.0729 23.5521 22.0208C24.4028 21.0243 25.0651 19.8941 25.5391 18.6302C26.013 17.3663 26.25 16.0174 26.25 14.5833C26.25 11.3507 25.1137 8.59809 22.8411 6.32552C20.5686 4.05295 17.816 2.91667 14.5833 2.91667C11.3507 2.91667 8.59809 4.05295 6.32552 6.32552C4.05295 8.59809 2.91667 11.3507 2.91667 14.5833C2.91667 16.0174 3.15365 17.3663 3.6276 18.6302C4.10156 19.8941 4.76389 21.0243 5.61458 22.0208ZM14.5833 16.0417C13.1493 16.0417 11.9401 15.5495 10.9557 14.5651C9.97135 13.5807 9.47917 12.3715 9.47917 10.9375C9.47917 9.50347 9.97135 8.29427 10.9557 7.3099C11.9401 6.32552 13.1493 5.83333 14.5833 5.83333C16.0174 5.83333 17.2266 6.32552 18.2109 7.3099C19.1953 8.29427 19.6875 9.50347 19.6875 10.9375C19.6875 12.3715 19.1953 13.5807 18.2109 14.5651C17.2266 15.5495 16.0174 16.0417 14.5833 16.0417ZM14.5833 29.1667C12.566 29.1667 10.6701 28.7839 8.89583 28.0182C7.12153 27.2526 5.57812 26.2135 4.26562 24.901C2.95312 23.5885 1.91406 22.0451 1.14844 20.2708C0.382812 18.4965 0 16.6007 0 14.5833C0 12.566 0.382812 10.6701 1.14844 8.89583C1.91406 7.12153 2.95312 5.57812 4.26562 4.26562C5.57812 2.95312 7.12153 1.91406 8.89583 1.14844C10.6701 0.382812 12.566 0 14.5833 0C16.6007 0 18.4965 0.382812 20.2708 1.14844C22.0451 1.91406 23.5885 2.95312 24.901 4.26562C26.2135 5.57812 27.2526 7.12153 28.0182 8.89583C28.7839 10.6701 29.1667 12.566 29.1667 14.5833C29.1667 16.6007 28.7839 18.4965 28.0182 20.2708C27.2526 22.0451 26.2135 23.5885 24.901 24.901C23.5885 26.2135 22.0451 27.2526 20.2708 28.0182C18.4965 28.7839 16.6007 29.1667 14.5833 29.1667Z" fill="#5F6368"/>
</svg>
